/* XPM */
static char *result[] = {
/* columns rows colors chars-per-pixel */
"32 32 216 2 ",
"   c #0F3959",
".  c #033E62",
"X  c #04446B",
"o  c #144061",
"O  c #044A73",
"+  c #0A4C72",
"@  c #054E79",
"#  c #164D78",
"$  c #03517C",
"%  c #284F78",
"&  c #304F77",
"*  c #22517B",
"=  c #2F527D",
"-  c #544F72",
";  c #47537C",
":  c #045582",
">  c #0D5682",
",  c #045986",
"<  c #095C87",
"1  c #045B8B",
"2  c #0B5C8D",
"3  c #135581",
"4  c #125D8A",
"5  c #1C5F8A",
"6  c #035F91",
"7  c #0D5F91",
"8  c #145F92",
"9  c #225E8C",
"0  c #255E86",
"q  c #3C5A83",
"w  c #335987",
"e  c #1F608E",
"r  c #046293",
"t  c #0B6494",
"y  c #03669B",
"u  c #056A9D",
"i  c #096B9E",
"p  c #096799",
"a  c #1D6493",
"s  c #15669A",
"d  c #1E6B9A",
"f  c #18689A",
"g  c #236396",
"h  c #2E6593",
"j  c #2A6B9B",
"k  c #206699",
"l  c #39699C",
"z  c #227399",
"x  c #3F709F",
"c  c #046DA3",
"v  c #0B6EA1",
"b  c #0572A5",
"n  c #0E75A6",
"m  c #0574AB",
"M  c #0579AC",
"N  c #0A7BA9",
"B  c #1475A5",
"V  c #1474AD",
"C  c #147AAF",
"Z  c #1F73A8",
"A  c #0477B1",
"S  c #057CB4",
"D  c #0A7CB3",
"F  c #047DB9",
"G  c #147EB5",
"H  c #1B7BB1",
"J  c #1C77B2",
"K  c #256CA2",
"L  c #376BA0",
"P  c #2372A4",
"I  c #247CAD",
"U  c #2874AA",
"Y  c #3B72A6",
"T  c #3974A8",
"R  c #327CAE",
"E  c #3374A8",
"W  c #227BB4",
"Q  c #2C7FB2",
"!  c #377EB6",
"~  c #435985",
"^  c #5D5F85",
"/  c #6A5C81",
"(  c #53608E",
")  c #4A6B9B",
"_  c #576897",
"`  c #636695",
"'  c #746E9A",
"]  c #7C6F9C",
"[  c #436FA4",
"{  c #4E6FA5",
"}  c #516FA1",
"|  c #4D74A4",
" . c #4374A9",
".. c #4B75AA",
"X. c #4778AF",
"o. c #5B77AA",
"O. c #4E7DB2",
"+. c #417DB8",
"@. c #557CB4",
"#. c #6B6FA0",
"$. c #6A7BAD",
"%. c #6376AA",
"&. c #7472A2",
"*. c #6B7EB3",
"=. c #0580B5",
"-. c #0583BB",
";. c #0C84BB",
":. c #0A85BA",
">. c #1182B5",
",. c #1384BC",
"<. c #1986B9",
"1. c #1A84A6",
"2. c #2483AB",
"3. c #2283BB",
"4. c #218ABE",
"5. c #2A86BA",
"6. c #3683B4",
"7. c #3489BE",
"8. c #3B85B8",
"9. c #4486BD",
"0. c #5684B6",
"q. c #508BB8",
"w. c #6E80B7",
"e. c #7F82B5",
"r. c #7D88BC",
"t. c #0585C4",
"y. c #058AC5",
"u. c #0C8AC3",
"i. c #078BC9",
"p. c #148BC3",
"a. c #198BC5",
"s. c #0D93C6",
"d. c #0693CD",
"f. c #0D95CB",
"g. c #0E9DCD",
"h. c #1193C2",
"j. c #1394CB",
"k. c #1B91C9",
"l. c #139CCC",
"z. c #1A94C4",
"x. c #048FD2",
"c. c #0592D1",
"v. c #079AD5",
"b. c #0E9DD3",
"n. c #069CD9",
"m. c #099EDA",
"M. c #0C97D2",
"N. c #139FD2",
"B. c #1597D2",
"V. c #208BC5",
"C. c #3E87C2",
"Z. c #2896C8",
"A. c #3693C6",
"S. c #2A9ED2",
"D. c #339DDC",
"F. c #399BD5",
"G. c #0EA1CE",
"H. c #1BA2CE",
"J. c #0BA2DB",
"K. c #0EAADC",
"L. c #0EA0D4",
"P. c #13A4D2",
"I. c #1CA3D7",
"U. c #11A0DB",
"Y. c #14ADD9",
"T. c #1BAEDB",
"R. c #18A9D3",
"E. c #0FB3DE",
"W. c #14B4DD",
"Q. c #1EBADE",
"!. c #25A4D2",
"~. c #25A8D9",
"^. c #34A4D3",
"/. c #31ADDB",
"(. c #3AAFDA",
"). c #38A7D9",
"_. c #2CB7DF",
"`. c #3DB8DE",
"'. c #0CAEE2",
"]. c #08A6E3",
"[. c #13ADE2",
"{. c #16B5E2",
"}. c #13BCEC",
"|. c #1CB8E8",
" X c #27A3E1",
".X c #31AAE2",
"XX c #27BEE9",
"oX c #4886C1",
"OX c #598FC4",
"+X c #588FC8",
"@X c #4596CC",
"#X c #5B94CD",
"$X c #539ACB",
"%X c #4E95D2",
"&X c #4A9CD9",
"*X c #4295D4",
"=X c #5A95D0",
"-X c #658FCB",
";X c #7089C5",
":X c #6B97CD",
">X c #7695CD",
",X c #6998D3",
"<X c #56A0D5",
"1X c #6DA0DC",
"2X c #45AAE0",
"3X c #51B8E8",
"4X c #46B5E2",
"5X c #1AC7EC",
"6X c #20C2E7",
"7X c #8F80AC",
"8X c #9487B6",
"9X c #868FC4",
"0X c #8190C5",
"qX c #9E99C9",
"wX c #819FD5",
"eX c None",
/* pixels */
"eXeXeXeXeXeXeXeXeXeXeXeXeXeXeXeXeXeXeXeXeXeXeXeXeXeXeXeXeXeXeXeX",
"eXeXeXeXeXeXeXeXeXeXeXeXeXeXeXeXeXeXeXeXeXeXeXeXeXeXeXeXeXeXeXeX",
"eXeXeXeXeXeXeXeXeXeXeXeXeXeXeXeXeXeXeXeXeXeXeXeXeXeXeXeXeXeXeXeX",
"eXeXeXeXeXeXeXeXeXeXeXeXeXeXeXeXeXeXeXeXeXeXeXeXeXeXeXeXeXeXeXeX",
"eXeXeXeXeXeXeXeXeXeXeXeXeXeXeXeXeX>XqXqXeXeXeXeXeXeXeXeXeXeXeXeX",
"eXeXeXeXeXeXeXeXeX$.o.oXq.>X1X+XeX3X=XA.D.w.eXeXeXeXeXeXeXeXeXeX",
"eXeXeXeXeXeXeXeX@.Y [ K 9 [ %X%XeX/.F.~.D.*X! eXeXeXeXeXeXeXeXeX",
"eXeXeXeXeXeXeXeX#XZ.3.a 3 k a.k.eX!.(.`.}..X,XeXeX7XeXeXeXeXeXeX",
"eXeXeXeXeXeXeXeXF. X;.4 X 8 t.G eXk.H.T.}.2XwX0X#XO.eXeXeXeXeXeX",
"eXeXeXe.-X-XeXeX X.XH u 6 7 3.0X .,.c m u.S.$Xw._ f eXeXeXeXeXeX",
"eXeX8Xr.=X%X&XeX4X^.G J l V H ~ s D r m i ,.8.~ 5 a.#.] &.eXeXeX",
"eXeX$.&.;X&Xm.|.V.F A D f K G 4 t.F m C d u.a + f.~.{ ` 7Xr.eXeX",
"eX' %.oXE V.j.P.m.n.M y r 1 >.>.i.A -.Z h 8.B F v.p.| ` #.` eXeX",
"eXq X.D.,.G j.d.p.m.i.m c u ;.<.<.M y.t.P Y D A f.OX( - | eXeXeX",
"eX% H ~. XOXl c.>.j.A.7.P.S s.H.Y.S M.m.>.;.M -.B.9._ ' *.eXeXeX",
"eX,X).T.Z.X.g j.H.k.= _ _.Y.P.W.Y.M J.].:.g.l.Z.,.<.L l h eXeXeX",
"eXW ).6XQ.H 3 G T.{.W.2.7.|.6X{.~.6.A.:.M =.s.G.s.L.Z.V eXeXeXeX",
"h 2 M !.(.^.X.V i.W.5X7.<.'.-.c >.9 % j < =.K.G.'.}.P.M.b.4.E ) ",
"~ g b a } ) +.p.y.A <.O.k.n.c r m t # Y X $ N ,.d.-.=.=.-.,.3.+.",
"; g u 1 O # W i.i.F p 5.;.S 1 : p D f 2.+ X $ u r : , r t.B.p.eX",
"~ 4 p r K Y W t.F y 1 $ r c A c y c ;.G.W.=.n n b -.-.M.f.! ^ eX",
"eX* > > < @ O , : O . @ r -.c.x.c D K.'.K.:.a 4.R.eXeXeXeXeXeXeX",
"eXeXeXeX  & ( * P f 1 r U U.'.J.i.y.m b y.V R I './.eXeXeXeXeXeX",
"eXeXeXeXz P [ ^ 0.@Xh.g.*.Z.N.b.d.u.t O 2 s a.eXeXeXeXeXeXeXeXeX",
"eXeXeXj z.P.K.n   a <.d.%.oXl.K.[.S.I d >.S D P.eXeXeXeXeXeXeXeX",
"eXeXeX; <X@Xk.S 1 b N B T 7.^.~.4. ._ l c.c.>.eXeXeXeXeXeXeXeXeX",
"eXeXeX' w...C.C.V B B t < t * 0 g = = R ].J.eXeXeXeXeXeXeXeXeXeX",
"eXeXeX/ eXeX[ | eXeXeXi < < + $ 0.0.8.eXeXeXeXeXeXeXeXeXeXeXeXeX",
"eXeXeXeXeXeXeXeXeXeXeXeXeXeXeXeXeXeXeXeXeXeXeXeXeXeXeXeXeXeXeXeX",
"eXeXeXeXeXeXeXeXeXeXeXeXeXeXeXeXeXeXeXeXeXeXeXeXeXeXeXeXeXeXeXeX",
"eXeXeXeXeXeXeXeXeXeXeXeXeXeXeXeXeXeXeXeXeXeXeXeXeXeXeXeXeXeXeXeX",
"eXeXeXeXeXeXeXeXeXeXeXeXeXeXeXeXeXeXeXeXeXeXeXeXeXeXeXeXeXeXeXeX"
};